<?xml version="1.0" encoding="UTF-8" standalone="no"?>
<!-- Created with Inkscape (http://www.inkscape.org/) -->

<svg
   xmlns:dc="http://purl.org/dc/elements/1.1/"
   xmlns:cc="http://creativecommons.org/ns#"
   xmlns:rdf="http://www.w3.org/1999/02/22-rdf-syntax-ns#"
   xmlns:svg="http://www.w3.org/2000/svg"
   xmlns="http://www.w3.org/2000/svg"
   xmlns:sodipodi="http://sodipodi.sourceforge.net/DTD/sodipodi-0.dtd"
   xmlns:inkscape="http://www.inkscape.org/namespaces/inkscape"
   width="765.76495"
   height="385.78442"
   id="svg2944"
   version="1.1"
   inkscape:version="0.47 r22583"
   sodipodi:docname="_phone-wire-landscape.svg">
  <defs
     id="defs2946">
    <inkscape:perspective
       sodipodi:type="inkscape:persp3d"
       inkscape:vp_x="0 : 526.18109 : 1"
       inkscape:vp_y="0 : 1000 : 0"
       inkscape:vp_z="744.09448 : 526.18109 : 1"
       inkscape:persp3d-origin="372.04724 : 350.78739 : 1"
       id="perspective2952" />
    <inkscape:perspective
       id="perspective2919"
       inkscape:persp3d-origin="0.5 : 0.33333333 : 1"
       inkscape:vp_z="1 : 0.5 : 1"
       inkscape:vp_y="0 : 1000 : 0"
       inkscape:vp_x="0 : 0.5 : 1"
       sodipodi:type="inkscape:persp3d" />
  </defs>
  <sodipodi:namedview
     id="base"
     pagecolor="#ffffff"
     bordercolor="#666666"
     borderopacity="1.0"
     inkscape:pageopacity="0.0"
     inkscape:pageshadow="2"
     inkscape:zoom="1.979899"
     inkscape:cx="471.00162"
     inkscape:cy="197.64549"
     inkscape:document-units="px"
     inkscape:current-layer="layer1"
     showgrid="false"
     inkscape:window-width="1920"
     inkscape:window-height="1080"
     inkscape:window-x="0"
     inkscape:window-y="0"
     inkscape:window-maximized="0" />
  <metadata
     id="metadata2949">
    <rdf:RDF>
      <cc:Work
         rdf:about="">
        <dc:format>image/svg+xml</dc:format>
        <dc:type
           rdf:resource="http://purl.org/dc/dcmitype/StillImage" />
        <dc:title />
      </cc:Work>
    </rdf:RDF>
  </metadata>
  <g
     inkscape:label="Calque 1"
     inkscape:groupmode="layer"
     id="layer1"
     transform="translate(743.80984,194.84331)">
    <path
       style="fill:none;stroke:#231f20;stroke-width:3;stroke-miterlimit:4;stroke-opacity:1;stroke-dasharray:none"
       d="M -742.28878,9.80903 C -742.06781,43.07518 -740.2178,76.34283 -734.84034,109.16257 -730.98439,128.79339 -730.97636,150.34966 -719.22628,167.30903 -709.87004,180.61002 -693.18102,185.73692 -677.63253,186.80903 -630.12644,190.80627 -582.37279,188.60327 -534.75755,189.23743 L -109.00783,189.22215 C -82.74029,187.60449 -55.79809,187.73904 -30.47628,180.43403 -11.74349,175.15082 3.61542,160.07477 8.28186,141.00807 18.48774,101.92821 18.27269,60.91822 20.33622,20.68403 20.97887,-24.94325 19.03303,-70.76593 14.07424,-116.07216 11.09183,-137.67212 6.58536,-161.99991 -12.03878,-175.84722 -35.16362,-192.42286 -65.03127,-192.34442 -92.47555,-193.16338 L -649.91335,-193.27431 C -671.10732,-192.50495 -695.04253,-192.1318 -711.69503,-177.40972 -729.08704,-161.70102 -730.98123,-136.98658 -734.7142,-115.32642 -740.20423,-73.96502 -742.56094,-31.96382 -742.28878,9.80903 z"
       id="path38"
       sodipodi:nodetypes="cccccccccccccccc" />
    <path
       style="fill:none;stroke:#231f20;stroke-width:3;stroke-opacity:1"
       d="M -57.46206,-191.30985 C -53.42106,-190.17422 -49.45231,-190.77897 -46.29131,-189.10197 -39.20331,-185.33997 -32.50631,-181.78797 -21.95931,-163.85597 -13.98531,-150.29497 -7.95331,-119.77797 -6.77131,-110.78797 -5.43131,-100.59997 -2.57931,-63.32697 -1.76631,-45.40797 -1.00531,-28.61897 -0.77431,-20.17497 -0.77431,-9.26797 L -0.78231,-5.70097 -0.77531,-2.05997 C -0.77531,16.25203 -1.28731,29.08603 -1.76631,39.67803 -2.57831,57.59703 -5.43131,94.86803 -6.77131,105.05603 -7.95231,114.04503 -13.98231,144.56203 -21.95931,158.12203 -32.50631,176.05403 -39.20031,179.60703 -46.29031,183.37103 -47.87131,184.20953 -49.65406,183.97764 -51.54669,184.67803"
       id="path40"
       sodipodi:nodetypes="cccsccccccccs" />
    <path
       id="path44"
       d="M -731.40231,11.40303 C -731.40231,1.20203 -731.26231,-16.47097 -731.16231,-25.30597 -731.07431,-32.91997 -730.43731,-43.59897 -729.92631,-52.18997 L -729.89831,-52.68997 C -729.74831,-55.20197 -729.60831,-57.55997 -729.49331,-59.64997 -729.03231,-68.12197 -728.55831,-75.91597 -727.85231,-78.20597 -727.32131,-79.92797 -726.67331,-80.01197 -725.59731,-80.15097 L -725.35331,-80.18297 C -723.98731,-80.37097 -722.92431,-79.86997 -722.19131,-78.69197 -721.57631,-77.70497 -721.47631,-77.36897 -721.47631,-76.29497 -721.47631,-75.96197 -721.48531,-75.56797 -721.50031,-75.05797 L -721.53531,-73.35397 C -721.59231,-69.59397 -722.27631,-62.13097 -722.97131,-54.81097 -723.61031,-48.11197 -724.29731,-31.63497 -724.52831,-22.80597 -724.75831,-13.96097 -724.75831,3.47103 -724.75831,10.03403 -724.75831,14.96103 -724.51231,22.24103 -724.29631,28.66003 L -724.27031,29.44403 -724.25931,29.76503 C -724.18931,31.86003 -724.12131,33.87103 -724.06831,35.70103 -723.90831,41.11603 -723.53031,46.74303 -723.19631,51.70703 L -723.19131,51.77903 -723.16831,52.10303 -723.11731,52.87503 C -722.99931,54.63903 -722.88831,56.29803 -722.80231,57.81103 -722.73631,58.94703 -722.66031,60.13203 -722.58331,61.32103 L -722.55831,61.70003 C -722.34431,64.99303 -722.12331,68.39703 -722.12331,70.71403 -722.12331,71.81803 -722.17331,72.61203 -722.27231,73.08103 -722.46531,74.00003 -722.90531,74.68303 -723.57831,75.10803 -724.50531,75.69403 -725.61231,75.64703 -726.11631,75.52703 -726.97431,75.32303 -728.79031,74.23103 -729.10131,72.63103 -729.37031,71.24703 -729.57731,66.68303 -729.82031,61.35103 L -730.01031,57.22603 C -730.34231,50.19703 -731.33331,25.04403 -731.39131,15.82803 -731.39831,14.56903 -731.40231,13.07303 -731.40231,11.40303 M -734.40231,11.40303 C -734.40231,13.07903 -734.39831,14.58003 -734.39231,15.84403 -734.33331,25.14903 -733.34031,50.34303 -733.00831,57.36803 L -732.81831,61.48903 C -732.55131,67.35803 -732.35931,71.59803 -732.04731,73.20303 -731.45531,76.25603 -728.52331,78.03903 -726.81331,78.44603 -725.55931,78.74303 -723.63131,78.69003 -721.97731,77.64403 -720.61331,76.78203 -719.70031,75.41803 -719.33831,73.69903 -719.19231,73.01003 -719.12531,72.06203 -719.12531,70.71503 -719.12531,68.29603 -719.35031,64.83203 -719.56731,61.48303 L -719.59031,61.12603 C -719.66731,59.94503 -719.74231,58.76803 -719.80831,57.63903 -719.90731,55.90203 -720.03831,53.96903 -720.17631,51.90503 L -720.19931,51.57103 C -720.53231,46.61403 -720.91131,40.99503 -721.07031,35.61403 -721.12631,33.68803 -721.19831,31.55903 -721.27231,29.34403 L -721.29831,28.56103 C -721.51431,22.15503 -721.75931,14.89403 -721.75931,10.03403 -721.75931,3.48203 -721.75931,-13.92197 -721.53031,-22.72797 -721.30131,-31.50297 -720.62031,-47.87397 -719.98631,-54.52597 -719.28431,-61.91397 -718.59531,-69.44897 -718.53731,-73.30797 L -718.50231,-74.99497 C -718.48631,-75.51297 -718.47731,-75.93597 -718.47731,-76.29397 -718.47731,-77.92797 -718.73931,-78.82097 -719.64531,-80.27697 -720.99931,-82.45397 -723.23531,-83.50297 -725.76231,-83.15497 L -725.98431,-83.12597 C -727.25531,-82.96197 -729.61931,-82.65597 -730.71931,-79.09097 -731.45531,-76.70397 -731.89431,-70.72597 -732.48931,-59.81397 -732.60431,-57.72997 -732.74331,-55.37597 -732.89331,-52.86997 L -732.92231,-52.35897 C -733.43631,-43.72997 -734.07431,-32.99197 -734.16331,-25.34097 -734.26231,-16.56797 -734.40231,1.08303 -734.40231,11.40303 L -734.40231,11.40303 z"
       style="fill:#231f20;fill-opacity:1" />
    <path
       style="fill:none;stroke:#231f20;stroke-width:3;stroke-opacity:1"
       d="M -13.38131,-2.30697 C -13.38131,9.39203 -22.92731,18.91303 -34.65831,18.91303 -46.39131,18.91303 -55.93531,9.39203 -55.93531,-2.30697 -55.93531,-14.00897 -46.39131,-23.52797 -34.65831,-23.52797 -22.92731,-23.52797 -13.38131,-14.00797 -13.38131,-2.30697"
       id="path46" />
    <path
       id="path52"
       d="M -663.90231,-162.30797 -128.56931,-162.30797 -128.56931,157.69203 -663.90231,157.69203 -663.90231,-162.30797 M -666.90231,-165.30797 -666.90231,-162.30797 -666.90231,157.69203 -666.90231,160.69203 -663.90231,160.69203 -128.56931,160.69203 -125.56931,160.69203 -125.56931,157.69203 -125.56931,-162.30797 -125.56931,-165.30797 -128.56931,-165.30797 -663.90231,-165.30797 -666.90231,-165.30797 -666.90231,-165.30797 z"
       style="fill:#231f20;fill-opacity:1"
       sodipodi:nodetypes="ccccccccccccccccccc" />
    <path
       id="path56"
       d="M -714.45931,-1.28197 C -714.45931,-22.01397 -713.74231,-42.24497 -712.26731,-63.13397 -711.13531,-79.17097 -710.56031,-85.67297 -707.90631,-108.00797 -705.17631,-130.97197 -702.44831,-145.24197 -699.06231,-154.27997 -695.68731,-163.29997 -691.54531,-172.49497 -681.42031,-177.17197 -671.32231,-181.83597 -656.68131,-182.44397 -641.30031,-182.69197 -632.57531,-182.83297 -584.27031,-183.18397 -545.45531,-183.46797 L -543.07031,-183.48497 C -519.19731,-183.65797 -500.34231,-183.79697 -496.66931,-183.83997 -486.64731,-183.95697 -288.75031,-184.06797 -280.54331,-184.06797 -275.67431,-184.06797 -248.97731,-184.09297 -220.90431,-184.11997 L -195.94631,-184.14297 C -172.86431,-184.16397 -153.22331,-184.18197 -149.71331,-184.18197 L -145.93431,-184.19197 C -134.71931,-184.23397 -113.84031,-184.31097 -107.09631,-182.75197 -99.39831,-180.97197 -89.38831,-174.50797 -84.37731,-161.70797 -80.48631,-151.76297 -76.83431,-135.04097 -73.81531,-113.35397 -72.18931,-101.62597 -68.64231,-61.97997 -67.73831,-40.47797 -67.31431,-30.33997 -67.07931,-16.15597 -67.07931,-0.54197 -67.07931,13.71203 -67.28431,27.28203 -67.62331,35.75803 -68.29331,52.35403 -71.00831,85.08303 -72.21831,97.24903 -73.38631,109.02103 -76.83531,129.82203 -78.03631,135.05203 L -78.48931,137.06503 C -79.75531,142.73303 -81.87031,152.22303 -85.40631,158.78903 -89.43231,166.25803 -91.08931,168.39103 -99.48331,174.00803 -106.50531,178.70803 -121.33731,178.48603 -130.19831,178.35203 L -130.39331,178.34903 C -131.66731,178.32903 -132.82731,178.31103 -133.83131,178.31103 -141.93331,178.31103 -254.09031,178.87703 -270.20531,179.00003 -284.99831,179.11303 -364.94031,179.22903 -375.01431,179.22903 -377.90331,179.22903 -390.87031,179.27403 -407.63831,179.33403 -444.04431,179.46003 -510.39631,179.65203 -517.72931,179.57203 -521.34131,179.53503 -534.35131,179.49803 -550.93131,179.44903 L -552.17631,179.44503 C -584.45331,179.35103 -628.66031,179.22403 -639.33531,178.99903 -640.98431,178.96503 -642.60631,178.93703 -644.20331,178.91203 -658.16531,178.68503 -670.22331,178.48803 -683.46431,172.98503 -697.78031,167.03503 -703.31631,147.13103 -707.22231,119.07503 -710.91331,92.57503 -713.70531,51.24403 -714.33431,13.78003 -714.41631,8.77803 -714.45931,3.71103 -714.45931,-1.28197 M -717.45931,-1.28197 C -717.45931,3.71903 -717.41631,8.80403 -717.33131,13.83103 -716.70131,51.40703 -713.89831,92.88003 -710.19131,119.49003 -706.14331,148.56503 -700.24431,169.26003 -684.61331,175.75703 -670.83731,181.48203 -658.51631,181.68203 -644.24931,181.91303 -642.65631,181.93903 -641.04031,181.96603 -639.39531,182.00003 -628.74331,182.22503 -584.75031,182.35303 -552.62731,182.44603 L -552.18231,182.44703 -550.93831,182.45103 -550.17831,182.45303 C -534.04631,182.50003 -521.30331,182.53703 -517.75731,182.57403 -510.14631,182.65703 -440.27131,182.44903 -407.62531,182.33603 -391.52031,182.27803 -377.95031,182.23103 -375.01231,182.23103 -364.92831,182.23103 -284.94431,182.11503 -270.18031,182.00203 -254.10131,181.87903 -141.96131,181.31303 -133.82931,181.31303 -132.85031,181.31303 -131.72131,181.33103 -130.48231,181.35003 L -130.24031,181.35303 C -121.03031,181.49203 -105.61331,181.72503 -97.81231,176.50303 -88.91131,170.54703 -87.01331,168.09903 -82.76331,160.21503 -79.03631,153.29303 -76.86331,143.56103 -75.56531,137.74703 L -75.10731,135.71303 C -73.89731,130.44203 -70.41031,109.43503 -69.23131,97.54703 -68.02231,85.38003 -65.29931,52.58603 -64.62431,35.88103 -64.28231,27.34003 -64.07731,13.72503 -64.07731,-0.53997 -64.07731,-16.18597 -64.31231,-30.41297 -64.73831,-40.60197 -65.64531,-62.17597 -69.20731,-101.98197 -70.84131,-113.76497 -73.89331,-135.68397 -77.60731,-152.63997 -81.58131,-162.79997 -87.01731,-176.68797 -97.97531,-183.72197 -106.41831,-185.67497 -112.95531,-187.18597 -130.24831,-187.24997 -145.94331,-187.19197 L -149.71931,-187.18197 C -152.47031,-187.18197 -165.19931,-187.16997 -181.73331,-187.15597 L -195.94631,-187.14297 -220.90531,-187.11997 C -248.97631,-187.09297 -275.67331,-187.06797 -280.54131,-187.06797 -289.25231,-187.06797 -486.68231,-186.95697 -496.70331,-186.83997 -500.33631,-186.79597 -519.03031,-186.65897 -543.09131,-186.48497 L -545.47531,-186.46797 -548.43831,-186.44697 C -586.03731,-186.17197 -632.83031,-185.82897 -641.34831,-185.69197 -657.06231,-185.43997 -672.04731,-184.80597 -682.67731,-179.89697 -693.83531,-174.74297 -698.43531,-164.51497 -701.87131,-155.33297 -705.34531,-146.05897 -708.12431,-131.57297 -710.88431,-108.36397 -713.54331,-85.98597 -714.12131,-79.45997 -715.25931,-63.34697 -716.74031,-42.38397 -717.45931,-22.08297 -717.45931,-1.28197 L -717.45931,-1.28197 z"
       style="fill:#231f20;fill-opacity:1" />
    <path
       style="fill:#231f20;fill-opacity:1;fill-rule:evenodd"
       clip-rule="evenodd"
       d="M -110.14231,124.59303 C -110.14231,124.59303 -103.85631,131.41103 -103.36831,131.96903 -102.87631,132.52403 -101.90131,132.10703 -101.48631,131.41003 -101.07131,130.71503 -94.61031,124.51903 -94.61031,124.51903 L -94.75831,121.45703 -101.14831,127.79103 C -101.14831,127.79103 -101.23831,120.97103 -101.03831,118.18703 -100.83631,115.40403 -99.37831,113.10503 -98.19931,111.50503 -97.01931,109.90303 -94.72431,108.02703 -94.72431,108.02703 L -94.73331,105.10103 C -94.73331,105.10103 -98.00231,106.91303 -100.84731,110.73903 -103.69431,114.56903 -103.47531,117.56103 -103.61031,119.65103 -103.74431,121.73703 -103.65831,128.00003 -103.65831,128.00003 L -110.15331,121.52903 -110.14231,124.59303 z"
       id="path60" />
    <rect
       style="fill:#231f20;fill-opacity:1;fill-rule:evenodd"
       x="-50.980049"
       y="-112.85433"
       clip-rule="evenodd"
       width="26.007"
       height="2.441"
       id="rect62"
       transform="matrix(0,-1,1,0,0,0)" />
    <rect
       style="fill:#231f20;fill-opacity:1;fill-rule:evenodd"
       x="-44.026039"
       y="-106.30135"
       clip-rule="evenodd"
       width="19.054001"
       height="2.7609999"
       id="rect64"
       transform="matrix(0,-1,1,0,0,0)" />
    <rect
       style="fill:#231f20;fill-opacity:1;fill-rule:evenodd"
       x="-44.026039"
       y="-100.23434"
       clip-rule="evenodd"
       width="19.054001"
       height="2.8599999"
       id="rect66"
       transform="matrix(0,-1,1,0,0,0)" />
    <rect
       style="fill:#231f20;fill-opacity:1;fill-rule:evenodd"
       x="-44.026039"
       y="-93.819359"
       clip-rule="evenodd"
       width="19.054001"
       height="2.648"
       id="rect68"
       transform="matrix(0,-1,1,0,0,0)" />
    <polygon
       style="fill:#231f20;fill-opacity:1;fill-rule:evenodd"
       transform="matrix(0,-1,1,0,-1001.3333,443.33603)"
       clip-rule="evenodd"
       points="494.326,893.453 487.511,887.038 473.048,901.12 474.717,902.724 487.722,889.967 500.443,902.583 502.182,901.191 496.55,895.754 496.55,888.922 494.326,888.922 "
       id="polygon70" />
    <polygon
       style="fill:#231f20;fill-opacity:1;fill-rule:evenodd"
       transform="matrix(0,-1,1,0,-1001.3333,443.33603)"
       clip-rule="evenodd"
       points="494.255,902.305 494.255,909.209 480.973,909.209 480.973,902.516 478.68,904.12 478.68,911.23 496.412,911.23 496.412,904.12 "
       id="polygon72" />
    <path
       style="fill:#231f20;fill-opacity:1;fill-rule:evenodd"
       clip-rule="evenodd"
       d="M -100.09331,-128.17897 -97.13131,-130.52697 -95.66831,-130.52697 C -95.66831,-130.52697 -91.41831,-134.21297 -90.30031,-135.60097 -89.18631,-136.99397 -89.67431,-137.33897 -90.16231,-137.82797 -90.65031,-138.31597 -92.11331,-138.59097 -92.81231,-137.96597 -93.50931,-137.33997 -98.38831,-133.02797 -98.38831,-133.02797 L -98.32131,-131.77897 -100.41231,-130.14197"
       id="path74" />
    <path
       id="path78"
       d="M -112.73031,-123.24997 C -112.73031,-126.89797 -109.76231,-129.86597 -106.11431,-129.86597 -102.46631,-129.86597 -99.49831,-126.89797 -99.49831,-123.24997 -99.49831,-119.60197 -102.46631,-116.63397 -106.11431,-116.63397 -109.76231,-116.63397 -112.73031,-119.60197 -112.73031,-123.24997 M -115.73031,-123.24997 C -115.73031,-117.93897 -111.42531,-113.63397 -106.11431,-113.63397 -100.80331,-113.63397 -96.49831,-117.93897 -96.49831,-123.24997 -96.49831,-128.56097 -100.80331,-132.86597 -106.11431,-132.86597 -111.42531,-132.86597 -115.73031,-128.56097 -115.73031,-123.24997 L -115.73031,-123.24997 z"
       style="fill:#231f20;fill-opacity:1" />
  </g>
</svg>
